<?xml version="1.0" standalone="no"?>
<!DOCTYPE svg PUBLIC "-//W3C//DTD SVG 20010904//EN"
 "http://www.w3.org/TR/2001/REC-SVG-20010904/DTD/svg10.dtd">
<svg version="1.0" xmlns="http://www.w3.org/2000/svg"
 width="256.000000pt" height="256.000000pt" viewBox="0 0 256.000000 256.000000"
 preserveAspectRatio="xMidYMid meet">
<metadata>
Created by potrace 1.11, written by Peter Selinger 2001-2013
</metadata>
<g transform="translate(0.000000,256.000000) scale(0.100000,-0.100000)"
fill="#000000" stroke="none">
<path d="M2138 2529 c-98 -28 -331 -100 -878 -269 -155 -48 -245 -84 -280
-113 -30 -24 -88 -103 -105 -142 -16 -36 -18 -96 -20 -648 -2 -335 -5 -610 -8
-613 -3 -3 -23 -1 -45 5 -61 17 -199 14 -272 -4 -165 -43 -307 -152 -372 -285
-27 -56 -32 -76 -32 -145 0 -64 4 -89 23 -127 43 -89 138 -156 247 -175 51 -9
191 -9 234 0 170 35 311 141 382 285 l33 67 3 545 c1 300 5 556 8 569 3 13 20
39 39 57 37 36 27 32 700 244 176 55 341 103 367 107 86 11 83 31 86 -445 l3
-414 -28 7 c-75 20 -100 23 -178 23 -269 0 -510 -174 -543 -393 -9 -57 -9 -57
2 -110 21 -110 123 -204 260 -239 82 -22 236 -13 323 17 101 35 158 70 229
142 77 78 115 154 123 243 3 37 6 434 6 882 l0 816 -25 49 c-48 92 -125 109
-282 64z"/>
</g>
</svg>
